<?xml version="1.0" encoding="UTF-8" standalone="no"?>
<!DOCTYPE svg PUBLIC "-//W3C//DTD SVG 1.1//EN" "http://www.w3.org/Graphics/SVG/1.1/DTD/svg11.dtd">
<svg width="100%" height="100%" viewBox="0 0 613 613" version="1.1" xmlns="http://www.w3.org/2000/svg" xmlns:xlink="http://www.w3.org/1999/xlink" xml:space="preserve" style="fill-rule:evenodd;clip-rule:evenodd;stroke-linejoin:round;stroke-miterlimit:1.41421;">
    <path d="M601.406,425.926L499.006,513.125L499.006,544.426C499.006,551.125 493.306,555.726 486.606,555.726L418.306,555.726C411.606,555.726 405.907,550.926 405.907,544.426L405.907,474.226C405.907,470.526 407.806,466.625 410.707,464.726L535.807,387.026L548.207,222.026C548.207,207.726 559.507,196.426 573.807,196.426C588.107,196.426 599.408,207.726 599.408,221.026L611.807,399.326C612.806,413.726 611.006,418.325 601.406,425.926ZM110.206,364.426L110.206,350.125L110.206,241.125C110.206,228.725 112.106,220.225 117.806,207.925L178.506,81.825C185.206,67.525 204.106,55.325 220.206,55.325L391.906,55.325C408.906,55.325 428.006,66.625 434.506,81.825L495.206,207.925C500.906,220.325 502.806,229.725 502.806,241.125L502.806,364.525C502.806,369.325 498.006,374.025 493.306,374.025L445.006,374.025C439.306,374.025 435.506,369.225 435.506,364.525L435.506,350.225L435.506,334.025L177.506,334.025L177.506,364.426C177.506,369.226 172.706,373.926 168.006,373.926L119.706,373.926C115.006,373.926 110.206,369.125 110.206,364.426ZM439.306,236.325C422.306,236.325 408.907,250.625 408.907,266.725C408.907,282.825 422.207,297.125 439.306,297.125C456.306,297.125 469.706,283.825 469.706,266.725C469.706,249.625 456.306,236.325 439.306,236.325ZM165.206,204.125L447.806,204.125L406.106,116.925C397.606,99.925 390.006,96.025 372.907,96.025L239.306,96.025C222.306,96.025 214.706,99.725 207.106,116.925L165.206,204.125ZM143.406,266.625C143.406,282.725 156.706,297.025 173.806,297.025C190.906,297.025 204.206,283.725 204.206,266.625C204.206,249.525 190.906,236.225 173.806,236.225C156.706,236.226 143.406,250.525 143.406,266.625ZM202.206,465.726L77.106,388.026L64.706,223.026C65.606,207.826 53.406,196.526 39.106,196.526C24.806,196.526 12.606,207.826 12.606,222.026L0.206,400.426C-0.694,414.726 1.106,419.325 10.606,426.926L113.006,514.125L113.006,545.426C113.006,552.125 118.706,556.726 125.406,556.726L194.706,556.726C201.406,556.726 207.106,551.926 207.106,545.426L207.106,475.226C206.906,471.525 205.006,467.825 202.206,465.726Z" style="fill:rgb(141,141,141);fill-rule:nonzero;"/>
</svg>
