<?xml version="1.0" encoding="UTF-8" standalone="no"?>
<!DOCTYPE svg PUBLIC "-//W3C//DTD SVG 1.1//EN" "http://www.w3.org/Graphics/SVG/1.1/DTD/svg11.dtd">
<svg width="100%" height="100%" viewBox="0 0 800 600" version="1.1" xmlns="http://www.w3.org/2000/svg" xmlns:xlink="http://www.w3.org/1999/xlink" xml:space="preserve" style="fill-rule:evenodd;clip-rule:evenodd;">
    <g transform="matrix(1,0,0,1,-29,82)">
        <g transform="matrix(0.827222,0,0,0.827222,-315.5,-351.306)">
            <path d="M900,0L900,900" style="fill-rule:nonzero;stroke:white;stroke-opacity:0.121569;stroke-width:0.85px;"/>
        </g>
        <g transform="matrix(0.827222,0,0,0.827222,-315.5,-351.306)">
            <path d="M0,0L900,900" style="fill-rule:nonzero;stroke:white;stroke-opacity:0.121569;stroke-width:0.85px;"/>
        </g>
        <g transform="matrix(0.827222,0,0,0.827222,-315.5,-351.306)">
            <path d="M100,0L900,800" style="fill-rule:nonzero;stroke:white;stroke-opacity:0.121569;stroke-width:0.85px;"/>
        </g>
        <g transform="matrix(0.827222,0,0,0.827222,-315.5,-351.306)">
            <path d="M200,0L900,700" style="fill-rule:nonzero;stroke:white;stroke-opacity:0.121569;stroke-width:0.85px;"/>
        </g>
        <g transform="matrix(0.827222,0,0,0.827222,-315.5,-351.306)">
            <path d="M300,0L900,600" style="fill-rule:nonzero;stroke:white;stroke-opacity:0.121569;stroke-width:0.85px;"/>
        </g>
        <g transform="matrix(0.827222,0,0,0.827222,-315.5,-351.306)">
            <path d="M400,0L900,500" style="fill-rule:nonzero;stroke:white;stroke-opacity:0.121569;stroke-width:0.85px;"/>
        </g>
        <g transform="matrix(0.827222,0,0,0.827222,-315.5,-351.306)">
            <path d="M300,900L600,600" style="fill-rule:nonzero;stroke:white;stroke-opacity:0.121569;stroke-width:0.85px;"/>
        </g>
        <g transform="matrix(0.827222,0,0,0.827222,-315.5,-351.306)">
            <path d="M400,900L700,600" style="fill-rule:nonzero;stroke:white;stroke-opacity:0.121569;stroke-width:0.85px;"/>
        </g>
        <g transform="matrix(0.827222,0,0,0.827222,-315.5,-351.306)">
            <path d="M500,900L800,600" style="fill-rule:nonzero;stroke:white;stroke-opacity:0.121569;stroke-width:0.85px;"/>
        </g>
        <g transform="matrix(0.827222,0,0,0.827222,-315.5,-351.306)">
            <path d="M600,900L900,600" style="fill-rule:nonzero;stroke:white;stroke-opacity:0.121569;stroke-width:0.85px;"/>
        </g>
        <g transform="matrix(0.827222,0,0,0.827222,-315.5,-351.306)">
            <path d="M700,900L900,700" style="fill-rule:nonzero;stroke:white;stroke-opacity:0.121569;stroke-width:0.85px;"/>
        </g>
        <g transform="matrix(0.827222,0,0,0.827222,-315.5,-351.306)">
            <path d="M800,900L900,800" style="fill-rule:nonzero;stroke:white;stroke-opacity:0.121569;stroke-width:0.85px;"/>
        </g>
        <g transform="matrix(0.827222,0,0,0.827222,-315.5,-351.306)">
            <path d="M1800,0L900,900" style="fill-rule:nonzero;stroke:white;stroke-opacity:0.121569;stroke-width:0.85px;"/>
        </g>
        <g transform="matrix(0.827222,0,0,0.827222,-315.5,-351.306)">
            <path d="M1700,0L900,800" style="fill-rule:nonzero;stroke:white;stroke-opacity:0.121569;stroke-width:0.85px;"/>
        </g>
        <g transform="matrix(0.827222,0,0,0.827222,-315.5,-351.306)">
            <path d="M1600,0L900,700" style="fill-rule:nonzero;stroke:white;stroke-opacity:0.121569;stroke-width:0.85px;"/>
        </g>
        <g transform="matrix(0.827222,0,0,0.827222,-315.5,-351.306)">
            <path d="M1500,0L900,600" style="fill-rule:nonzero;stroke:white;stroke-opacity:0.121569;stroke-width:0.85px;"/>
        </g>
        <g transform="matrix(0.827222,0,0,0.827222,-315.5,-351.306)">
            <path d="M1400,0L900,500" style="fill-rule:nonzero;stroke:white;stroke-opacity:0.121569;stroke-width:0.85px;"/>
        </g>
        <g transform="matrix(0.827222,0,0,0.827222,-315.5,-351.306)">
            <path d="M1500,900L1200,600" style="fill-rule:nonzero;stroke:white;stroke-opacity:0.121569;stroke-width:0.85px;"/>
        </g>
        <g transform="matrix(0.827222,0,0,0.827222,-315.5,-351.306)">
            <path d="M1400,900L1100,600" style="fill-rule:nonzero;stroke:white;stroke-opacity:0.121569;stroke-width:0.85px;"/>
        </g>
        <g transform="matrix(0.827222,0,0,0.827222,-315.5,-351.306)">
            <path d="M1300,900L1000,600" style="fill-rule:nonzero;stroke:white;stroke-opacity:0.121569;stroke-width:0.85px;"/>
        </g>
        <g transform="matrix(0.827222,0,0,0.827222,-315.5,-351.306)">
            <path d="M1200,900L900,600" style="fill-rule:nonzero;stroke:white;stroke-opacity:0.121569;stroke-width:0.85px;"/>
        </g>
        <g transform="matrix(0.827222,0,0,0.827222,-315.5,-351.306)">
            <path d="M1100,900L900,700" style="fill-rule:nonzero;stroke:white;stroke-opacity:0.121569;stroke-width:0.85px;"/>
        </g>
        <g transform="matrix(0.827222,0,0,0.827222,-315.5,-351.306)">
            <path d="M1000,900L900,800" style="fill-rule:nonzero;stroke:white;stroke-opacity:0.121569;stroke-width:0.85px;"/>
        </g>
        <g transform="matrix(0.827222,0,0,0.827222,-315.5,-351.306)">
            <path d="M300,900L600,600L650,650L700,600L750,650L800,600L850,650L900,600L900,900L900,600L950,650L1000,600L1050,650L1100,600L1150,650L1200,600L1500,900L300,900Z" style="fill:white;fill-opacity:0.0745098;fill-rule:nonzero;"/>
        </g>
        <g transform="matrix(0.827222,0,0,0.827222,-315.5,-394.306)">
            <path d="M300,900L600,600L650,650L700,600L750,650L800,600L850,650L900,600L900,900L900,600L950,650L1000,600L1050,650L1100,600L1150,650L1200,600L1500,900L300,900Z" style="fill:white;fill-opacity:0.0745098;fill-rule:nonzero;"/>
        </g>
        <g transform="matrix(0.827222,0,0,0.827222,-315.5,-434.306)">
            <path d="M300,900L600,600L650,650L700,600L750,650L800,600L850,650L900,600L900,900L900,600L950,650L1000,600L1050,650L1100,600L1150,650L1200,600L1500,900L300,900Z" style="fill:white;fill-opacity:0.0745098;fill-rule:nonzero;"/>
        </g>
        <g transform="matrix(0.827222,0,0,0.827222,-315.5,-476.306)">
            <path d="M300,900L600,600L650,650L700,600L750,650L800,600L850,650L900,600L900,900L900,600L950,650L1000,600L1050,650L1100,600L1150,650L1200,600L1500,900L300,900Z" style="fill:white;fill-opacity:0.0745098;fill-rule:nonzero;"/>
        </g>
        <g transform="matrix(0.827222,0,0,0.827222,-315.5,-518.306)">
            <path d="M300,900L600,600L650,650L700,600L750,650L800,600L850,650L900,600L900,900L900,600L950,650L1000,600L1050,650L1100,600L1150,650L1200,600L1500,900L300,900Z" style="fill:white;fill-opacity:0.0745098;fill-rule:nonzero;"/>
        </g>
        <g transform="matrix(0.827222,0,0,0.827222,-315.5,-561.306)">
            <path d="M300,900L600,600L650,650L700,600L750,650L800,600L850,650L900,600L900,900L900,600L950,650L1000,600L1050,650L1100,600L1150,650L1200,600L1500,900L300,900Z" style="fill:white;fill-opacity:0.0745098;fill-rule:nonzero;"/>
        </g>
        <g transform="matrix(0.827222,0,0,0.827222,-315.5,-601.306)">
            <path d="M300,900L600,600L650,650L700,600L750,650L800,600L850,650L900,600L900,900L900,600L950,650L1000,600L1050,650L1100,600L1150,650L1200,600L1500,900L300,900Z" style="fill:white;fill-opacity:0.0745098;fill-rule:nonzero;"/>
        </g>
        <g transform="matrix(0.827222,0,0,0.827222,-315.5,-351.306)">
            <path d="M350,950L650,650L700,700L750,650L800,700L850,650L900,700L900,900L900,700L950,650L1000,700L1050,650L1100,700L1150,650L1450,950L350,950Z" style="fill:white;fill-opacity:0.0745098;fill-rule:nonzero;"/>
        </g>
        <g transform="matrix(0.827222,0,0,0.827222,-315.5,-351.306)">
            <path d="M400,1000L700,700L750,750L800,700L850,750L900,700L900,900L900,700L950,750L1000,700L1050,750L1100,700L1350,1000L400,1000Z" style="fill:white;fill-opacity:0.0745098;fill-rule:nonzero;"/>
        </g>
        <g transform="matrix(0.827222,0,0,0.827222,-315.5,-351.306)">
            <path d="M450,1050L750,750L800,800L850,750L900,800L900,900L900,800L950,750L1000,800L1050,750L1350,1050L450,1050Z" style="fill:white;fill-opacity:0.0745098;fill-rule:nonzero;"/>
        </g>
        <g transform="matrix(0.827222,0,0,0.827222,-315.5,-351.306)">
            <path d="M500,1100L800,800L850,850L900,800L900,900L900,800L950,850L1000,800L1300,1100L500,1100Z" style="fill:white;fill-opacity:0.0745098;fill-rule:nonzero;"/>
        </g>
        <g transform="matrix(0.827222,0,0,0.827222,-315.5,-351.306)">
            <path d="M550,1150L850,850L900,900L950,850L1250,1150L550,1150Z" style="fill:white;fill-opacity:0.0745098;fill-rule:nonzero;"/>
        </g>
    </g>
</svg>
